# xmcd
#
# Track frame offsets: 
#        150
#        26562
#        55675
#        81062
#        119035
#        131560
#        152567
#        166875
#        188660
#        213907
#        249145
#        283795
#
# Disc length: 4025 seconds
#
# Revision: 2
# Processed by: cddbd v1.5.2PL0 Copyright (c) Steve Scherf et al.
# Submitted via: ExactAudioCopyFreeDBPlugin 1.0
#
DISCID=9a0fb70c
DTITLE=Paul Black and the Flip Kings - King Dollar
DYEAR=1996
DGENRE=Blues
TTITLE0=MooGoo
TTITLE1=Malted Milk
TTITLE2=The Last Time
TTITLE3=Murder My Baby
TTITLE4=The Hard Way
TTITLE5=G-Baby
TTITLE6=Factory Girl
TTITLE7=Cross Eyed Baby
TTITLE8=HoneyMoon Blues
TTITLE9=The Fixer
TTITLE10=Dead Shrimp Blues
TTITLE11=Paulie's Little Nightmare
EXTD=YEAR: 1996
EXTT0=
EXTT1=
EXTT2=
EXTT3=
EXTT4=
EXTT5=
EXTT6=
EXTT7=
EXTT8=
EXTT9=
EXTT10=
EXTT11=
PLAYORDER=
